<svg xmlns="http://www.w3.org/2000/svg" version="1.1" width="512" height="512">
<path d="M0 0 C0.96568079 -0.00445668 0.96568079 -0.00445668 1.95087028 -0.0090034 C4.11282881 -0.01768902 6.27473194 -0.01919866 8.43670654 -0.02069092 C9.98601906 -0.02531997 11.53533045 -0.03034475 13.0846405 -0.03573608 C17.30281436 -0.04887207 21.52097227 -0.05530984 25.7391634 -0.05974674 C28.38350194 -0.0626815 31.02783618 -0.06678754 33.67217255 -0.07125092 C41.97010854 -0.08494208 50.26803464 -0.09459525 58.56598115 -0.09845281 C68.09528933 -0.10290816 77.62445225 -0.12033061 87.15371633 -0.1494534 C94.5443116 -0.17124141 101.9348666 -0.18116646 109.32549357 -0.18249393 C113.72544742 -0.18353178 118.12526507 -0.18921522 122.52518463 -0.20731354 C170.25355914 -0.39219033 212.71154258 6.14272454 248.68182373 40.14044189 C249.48104248 40.87520752 250.28026123 41.60997314 251.10369873 42.36700439 C287.70769755 77.22240455 300.40730324 130.09792013 301.62957764 178.90411377 C302.3806966 225.43137082 289.3545768 274.29612 258.68182373 310.14044189 C257.99604248 310.94868408 257.31026123 311.75692627 256.60369873 312.58966064 C229.98949439 343.08111418 193.9536178 357.88625227 154.00419617 360.94754791 C142.03638998 361.64238807 130.00662179 361.47108425 118.02224636 361.47495604 C115.51880217 361.47639224 113.01537892 361.48068843 110.51194 361.48595047 C101.75589131 361.5043305 92.9999028 361.51263379 84.24383545 361.51104736 C76.11144652 361.50983986 67.97932031 361.53109159 59.84699798 361.56253469 C52.82570846 361.5887054 45.80450502 361.59941477 38.78316712 361.59813654 C34.60579478 361.59762841 30.42865835 361.60323339 26.25133514 361.62449265 C22.33415464 361.64389611 18.41743547 361.64398557 14.50023842 361.62945938 C13.0683989 361.62737484 11.63653019 361.63205105 10.20474052 361.6441803 C-4.90070096 361.76382367 -4.90070096 361.76382367 -10.31817627 357.14044189 C-15.88401117 351.54354783 -17.00902817 346.18610628 -17.06474876 338.46051693 C-17.04316011 337.22817098 -17.02157146 335.99582502 -16.99932861 334.72613525 C-16.99748725 333.37337886 -16.99829728 332.0206167 -17.00152016 330.66786289 C-17.00286601 327.06906296 -16.96828122 323.47147794 -16.92585754 319.87296295 C-16.89149893 316.48719263 -16.89006886 313.10170675 -16.88580322 309.71575928 C-16.85441167 299.83632803 -16.77064388 289.95711929 -16.69317627 280.07794189 C-16.50755127 246.94387939 -16.50755127 246.94387939 -16.31817627 213.14044189 C28.89182373 213.14044189 74.10182373 213.14044189 120.68182373 213.14044189 C118.69223141 217.11962653 116.92532036 219.10752684 113.77655029 222.17755127 C113.27871033 222.66604553 112.78087036 223.15453979 112.26794434 223.65783691 C111.18855551 224.7162623 110.10701219 225.77249401 109.0235672 226.82676697 C107.30168863 228.50441877 105.58801383 230.19004796 103.87658691 231.87835693 C99.01045359 236.67751572 94.13672172 241.46870782 89.24139404 246.23809814 C86.24327107 249.16024074 83.26054506 252.09739313 80.2866745 255.04420471 C79.15848326 256.1564437 78.02479605 257.26313984 76.88526154 258.36375427 C67.5125156 267.42215165 59.65275676 277.1130739 59.36932373 290.70294189 C59.46866651 300.34912618 62.05688868 307.32935803 68.68182373 314.38262939 C76.36685995 321.13705576 83.96276296 322.58640628 93.94744873 322.47247314 C109.78281227 321.06451718 119.89691796 308.07523746 130.46820068 297.51519775 C131.50569921 296.48234222 132.54338911 295.44967889 133.58125305 294.41719055 C136.36851483 291.64289878 139.15256887 288.86541125 141.93558908 286.08686519 C143.67901729 284.34638842 145.42302228 282.60649155 147.16719627 280.86676216 C152.63855706 275.40902584 158.10794962 269.94932863 163.57444316 264.48671716 C169.86012809 258.20552283 176.15232135 251.93094505 182.4501918 245.66196913 C187.33897576 240.79483133 192.22195084 235.92191507 197.10059136 231.04461008 C200.00615394 228.14009195 202.91405951 225.23801928 205.82805824 222.34196281 C208.56557877 219.62097748 211.29577951 216.89285137 214.02066612 214.15921593 C215.01734838 213.16176665 216.01656653 212.16684338 217.01858521 211.1747551 C226.69202824 201.59153782 232.34445268 193.45730425 234.11932373 179.76544189 C232.06005523 162.70293146 221.5423739 153.85816694 209.90472412 142.17047119 C208.85542846 141.11324905 207.80630538 140.0558556 206.75733948 138.99830627 C203.35170578 135.5667842 199.94091937 132.14040965 196.52947998 128.71466064 C195.34686866 127.5266792 194.16426103 126.33869407 192.98165703 125.15070534 C188.06208874 120.20957265 183.14110752 115.26985433 178.21640873 110.33383465 C171.19439535 103.29556044 164.18104109 96.2489022 157.17936713 89.1903922 C152.23245416 84.20471045 147.27592866 79.22871469 142.31223482 74.25974017 C139.35696129 71.30082784 136.4059504 68.33794858 133.46519661 65.36459923 C130.70093715 62.57013014 127.92487781 59.78793387 125.13961601 57.01440239 C124.12511583 56.00012174 123.11481611 54.98161774 122.10929871 53.95843124 C113.43646482 45.14165807 104.01870238 38.27128846 91.21307373 38.10919189 C81.33454053 38.71897789 73.28852241 42.77087823 66.68182373 50.14044189 C60.73925863 58.8699668 59.76871856 66.64523312 60.68182373 77.14044189 C62.34408489 84.34061055 65.68539241 89.46230427 70.69866943 94.8213501 C71.18170941 95.3390286 71.66474939 95.8567071 72.16242695 96.39007282 C77.19213234 101.74861215 82.38016613 106.94798196 87.59979248 112.12091064 C88.59328029 113.10997571 89.58646339 114.09934693 90.57936096 115.08900452 C93.67313815 118.17154914 96.77094907 121.25001935 99.86932373 124.32794189 C103.50270699 127.93766488 107.13438755 131.54907059 110.76195717 135.16463661 C112.20694607 136.60314428 113.6549049 138.03861621 115.10301208 139.47398376 C115.96844131 140.33610977 116.83387054 141.19823578 117.7255249 142.08648682 C118.87488777 143.22799446 118.87488777 143.22799446 120.04747009 144.39256287 C121.68182373 146.14044189 121.68182373 146.14044189 121.68182373 147.14044189 C76.14182373 147.14044189 30.60182373 147.14044189 -16.31817627 147.14044189 C-16.40067627 124.65919189 -16.48317627 102.17794189 -16.56817627 79.01544189 C-16.60459229 71.91770264 -16.6410083 64.81996338 -16.67852783 57.50714111 C-16.69659424 48.83795166 -16.69659424 48.83795166 -16.69995117 44.77914429 C-16.70367692 41.9451138 -16.71866267 39.11138322 -16.74047852 36.2774353 C-16.76795448 32.66019488 -16.77613388 29.04338933 -16.77046537 25.42605424 C-16.77220857 23.47527697 -16.79364297 21.52454758 -16.81589127 19.57389641 C-16.78528008 13.13725728 -16.7225422 9.00332801 -12.31817627 4.14044189 C-11.80255127 3.54231689 -11.28692627 2.94419189 -10.75567627 2.32794189 C-7.52272666 -0.34275561 -3.98671331 0.01027092 0 0 Z " fill="#fff" transform="translate(113.31817626953125,75.85955810546875)"/>
</svg>